<svg xmlns="http://www.w3.org/2000/svg" viewBox="0 0 960 520" width="960" height="520" font-family="Helvetica, Arial, sans-serif">
<rect width="960" height="520" fill="#ffffff"/>
<text x="30" y="36" font-size="20" font-weight="bold" fill="#15201e">Candidate genes by batch: what exists in the repo</text>
<text x="30" y="58" font-size="13" fill="#56655f">Checked against genes/human/&lt;GENE&gt;/&lt;GENE&gt;-ai-review.yaml, September 2026</text>
<text x="30" y="116" font-size="15" font-weight="bold" fill="#15201e">A  direct sensors</text>
<rect x="230" y="90" width="96" height="40" rx="6" fill="#ffffff" stroke="#8fa39c" stroke-dasharray="4 3"/><text x="278" y="115" font-size="14" text-anchor="middle" fill="#56655f">PIEZO1</text>
<rect x="334" y="90" width="96" height="40" rx="6" fill="#ffffff" stroke="#8fa39c" stroke-dasharray="4 3"/><text x="382" y="115" font-size="14" text-anchor="middle" fill="#56655f">PIEZO2</text>
<rect x="438" y="90" width="96" height="40" rx="6" fill="#ffffff" stroke="#8fa39c" stroke-dasharray="4 3"/><text x="486" y="115" font-size="14" text-anchor="middle" fill="#56655f">TRPV4</text>
<rect x="542" y="90" width="96" height="40" rx="6" fill="#ffffff" stroke="#8fa39c" stroke-dasharray="4 3"/><text x="590" y="115" font-size="14" text-anchor="middle" fill="#56655f">PKD1</text>
<rect x="646" y="90" width="96" height="40" rx="6" fill="#ffffff" stroke="#8fa39c" stroke-dasharray="4 3"/><text x="694" y="115" font-size="14" text-anchor="middle" fill="#56655f">PKD2</text>
<text x="30" y="186" font-size="15" font-weight="bold" fill="#15201e">B  integrin adhesome</text>
<rect x="230" y="160" width="96" height="40" rx="6" fill="#ffffff" stroke="#8fa39c" stroke-dasharray="4 3"/><text x="278" y="185" font-size="14" text-anchor="middle" fill="#56655f">ITGB1</text>
<rect x="334" y="160" width="96" height="40" rx="6" fill="#ffffff" stroke="#8fa39c" stroke-dasharray="4 3"/><text x="382" y="185" font-size="14" text-anchor="middle" fill="#56655f">ITGA5</text>
<rect x="438" y="160" width="96" height="40" rx="6" fill="#ffffff" stroke="#8fa39c" stroke-dasharray="4 3"/><text x="486" y="185" font-size="14" text-anchor="middle" fill="#56655f">TLN1</text>
<rect x="542" y="160" width="96" height="40" rx="6" fill="#ffffff" stroke="#8fa39c" stroke-dasharray="4 3"/><text x="590" y="185" font-size="14" text-anchor="middle" fill="#56655f">VCL</text>
<rect x="646" y="160" width="96" height="40" rx="6" fill="#ffffff" stroke="#8fa39c" stroke-dasharray="4 3"/><text x="694" y="185" font-size="14" text-anchor="middle" fill="#56655f">PTK2</text>
<rect x="750" y="160" width="96" height="40" rx="6" fill="#ffffff" stroke="#8fa39c" stroke-dasharray="4 3"/><text x="798" y="185" font-size="14" text-anchor="middle" fill="#56655f">PXN</text>
<text x="30" y="256" font-size="15" font-weight="bold" fill="#15201e">C  nucleus coupling</text>
<rect x="230" y="230" width="96" height="40" rx="6" fill="#ffffff" stroke="#8fa39c" stroke-dasharray="4 3"/><text x="278" y="255" font-size="14" text-anchor="middle" fill="#56655f">LMNA</text>
<rect x="334" y="230" width="96" height="40" rx="6" fill="#ffffff" stroke="#8fa39c" stroke-dasharray="4 3"/><text x="382" y="255" font-size="14" text-anchor="middle" fill="#56655f">SYNE1</text>
<rect x="438" y="230" width="96" height="40" rx="6" fill="#ffffff" stroke="#8fa39c" stroke-dasharray="4 3"/><text x="486" y="255" font-size="14" text-anchor="middle" fill="#56655f">SYNE2</text>
<rect x="542" y="230" width="96" height="40" rx="6" fill="#ffffff" stroke="#8fa39c" stroke-dasharray="4 3"/><text x="590" y="255" font-size="14" text-anchor="middle" fill="#56655f">SUN1</text>
<rect x="646" y="230" width="96" height="40" rx="6" fill="#ffffff" stroke="#8fa39c" stroke-dasharray="4 3"/><text x="694" y="255" font-size="14" text-anchor="middle" fill="#56655f">SUN2</text>
<rect x="750" y="230" width="96" height="40" rx="6" fill="#ffffff" stroke="#8fa39c" stroke-dasharray="4 3"/><text x="798" y="255" font-size="14" text-anchor="middle" fill="#56655f">EMD</text>
<text x="30" y="326" font-size="15" font-weight="bold" fill="#15201e">D  mechanical state</text>
<rect x="230" y="300" width="96" height="40" rx="6" fill="#ffffff" stroke="#8fa39c" stroke-dasharray="4 3"/><text x="278" y="325" font-size="14" text-anchor="middle" fill="#56655f">YAP1</text>
<rect x="334" y="300" width="96" height="40" rx="6" fill="#ffffff" stroke="#8fa39c" stroke-dasharray="4 3"/><text x="382" y="325" font-size="14" text-anchor="middle" fill="#56655f">WWTR1</text>
<rect x="438" y="300" width="96" height="40" rx="6" fill="#ffffff" stroke="#8fa39c" stroke-dasharray="4 3"/><text x="486" y="325" font-size="14" text-anchor="middle" fill="#56655f">LATS1</text>
<rect x="542" y="300" width="96" height="40" rx="6" fill="#ffffff" stroke="#8fa39c" stroke-dasharray="4 3"/><text x="590" y="325" font-size="14" text-anchor="middle" fill="#56655f">LATS2</text>
<rect x="646" y="300" width="96" height="40" rx="6" fill="#ffffff" stroke="#8fa39c" stroke-dasharray="4 3"/><text x="694" y="325" font-size="14" text-anchor="middle" fill="#56655f">RHOA</text>
<rect x="750" y="300" width="96" height="40" rx="6" fill="#ffffff" stroke="#8fa39c" stroke-dasharray="4 3"/><text x="798" y="325" font-size="14" text-anchor="middle" fill="#56655f">ROCK1</text>
<rect x="854" y="300" width="96" height="40" rx="6" fill="#ffffff" stroke="#8fa39c" stroke-dasharray="4 3"/><text x="902" y="325" font-size="14" text-anchor="middle" fill="#56655f">ROCK2</text>
<text x="30" y="396" font-size="15" font-weight="bold" fill="#15201e">E  matrix / fibrosis</text>
<rect x="230" y="370" width="96" height="40" rx="6" fill="#b8620f"/><text x="278" y="389" font-size="14" text-anchor="middle" fill="#fff" font-weight="bold">FN1</text><text x="278" y="404" font-size="11" text-anchor="middle" fill="#fff">196 rows</text>
<rect x="334" y="370" width="96" height="40" rx="6" fill="#b8620f"/><text x="382" y="389" font-size="14" text-anchor="middle" fill="#fff" font-weight="bold">LOX</text><text x="382" y="404" font-size="11" text-anchor="middle" fill="#fff">44 rows</text>
<rect x="438" y="370" width="96" height="40" rx="6" fill="#b8620f"/><text x="486" y="389" font-size="14" text-anchor="middle" fill="#fff" font-weight="bold">SPARC</text><text x="486" y="404" font-size="11" text-anchor="middle" fill="#fff">43 rows</text>
<rect x="542" y="370" width="96" height="40" rx="6" fill="#b8620f"/><text x="590" y="389" font-size="14" text-anchor="middle" fill="#fff" font-weight="bold">DCN</text><text x="590" y="404" font-size="11" text-anchor="middle" fill="#fff">72 rows</text>
<rect x="646" y="370" width="96" height="40" rx="6" fill="#ffffff" stroke="#8fa39c" stroke-dasharray="4 3"/><text x="694" y="395" font-size="14" text-anchor="middle" fill="#56655f">TGFB1</text>
<rect x="750" y="370" width="96" height="40" rx="6" fill="#ffffff" stroke="#8fa39c" stroke-dasharray="4 3"/><text x="798" y="395" font-size="14" text-anchor="middle" fill="#56655f">CTGF</text>
<rect x="30" y="450" width="24" height="18" rx="3" fill="#b8620f"/><text x="62" y="464" font-size="13" fill="#15201e">reviewed for another purpose, not yet read against the mechanical chain</text>
<rect x="30" y="478" width="24" height="18" rx="3" fill="#fff" stroke="#8fa39c" stroke-dasharray="4 3"/><text x="62" y="492" font-size="13" fill="#15201e">no review in the repo</text>
</svg>