<svg xmlns="http://www.w3.org/2000/svg" viewBox="0 0 960 520" font-family="Helvetica, Arial, sans-serif">
<rect width="960" height="520" fill="#ffffff"/>
<text x="30" y="36" font-size="17" font-weight="600" fill="#15201e">Actions on 68 phosphorylation rows (60 genes)</text>
<text x="30" y="56" font-size="12" fill="#56655f">counted from genes/{human,mouse}/*/…-ai-review.yaml</text>
<text x="200" y="107" text-anchor="end" font-size="13" fill="#15201e">REMOVE</text>
<rect x="210" y="90" width="306" height="24" fill="#bd3a30"/>
<text x="522" y="107" font-size="13" fill="#15201e">34</text>
<text x="200" y="147" text-anchor="end" font-size="13" fill="#15201e">MODIFY</text>
<rect x="210" y="130" width="234" height="24" fill="#b8620f"/>
<text x="450" y="147" font-size="13" fill="#15201e">26</text>
<text x="200" y="187" text-anchor="end" font-size="13" fill="#15201e">UNDECIDED</text>
<rect x="210" y="170" width="36" height="24" fill="#8fa39c"/>
<text x="252" y="187" font-size="13" fill="#15201e">4</text>
<text x="200" y="227" text-anchor="end" font-size="13" fill="#15201e">MARK_AS_OVER_ANNOTATED</text>
<rect x="210" y="210" width="27" height="24" fill="#7657a3"/>
<text x="243" y="227" font-size="13" fill="#15201e">3</text>
<text x="200" y="267" text-anchor="end" font-size="13" fill="#15201e">ACCEPT</text>
<rect x="210" y="250" width="9" height="24" fill="#1d8a4b"/>
<text x="225" y="267" font-size="13" fill="#15201e">1</text>
<line x1="505" y1="30" x2="505" y2="490" stroke="#8fa39c" stroke-width="1"/>
<text x="530" y="36" font-size="17" font-weight="600" fill="#15201e">Problem rows found per database</text>
<text x="530" y="56" font-size="12" fill="#56655f">query-level estimates from the project page</text>
<text x="640" y="95" text-anchor="end" font-size="13" fill="#15201e">SGD</text>
<rect x="650" y="80" width="2" height="22" fill="#1d8a4b"/>
<text x="658" y="95" font-size="13" fill="#15201e">0</text>
<text x="640" y="139" text-anchor="end" font-size="13" fill="#15201e">PomBase</text>
<rect x="650" y="124" width="2" height="22" fill="#1d8a4b"/>
<text x="658" y="139" font-size="13" fill="#15201e">0</text>
<text x="640" y="183" text-anchor="end" font-size="13" fill="#15201e">WormBase</text>
<rect x="650" y="168" width="2" height="22" fill="#1d8a4b"/>
<text x="658" y="183" font-size="13" fill="#15201e">0</text>
<text x="640" y="227" text-anchor="end" font-size="13" fill="#15201e">ZFIN</text>
<rect x="650" y="212" width="5" height="22" fill="#b8620f"/>
<text x="661" y="227" font-size="13" fill="#15201e">1</text>
<text x="640" y="271" text-anchor="end" font-size="13" fill="#15201e">FlyBase</text>
<rect x="650" y="256" width="15" height="22" fill="#b8620f"/>
<text x="671" y="271" font-size="13" fill="#15201e">~3</text>
<text x="640" y="315" text-anchor="end" font-size="13" fill="#15201e">TAIR</text>
<rect x="650" y="300" width="50" height="22" fill="#b8620f"/>
<text x="706" y="315" font-size="13" fill="#15201e">~7–10</text>
<text x="640" y="359" text-anchor="end" font-size="13" fill="#15201e">RGD</text>
<rect x="650" y="344" width="55" height="22" fill="#b8620f"/>
<text x="711" y="359" font-size="13" fill="#15201e">11</text>
<text x="640" y="403" text-anchor="end" font-size="13" fill="#15201e">MGI</text>
<rect x="650" y="388" width="100" height="22" fill="#bd3a30"/>
<text x="756" y="403" font-size="13" fill="#15201e">~20</text>
<text x="640" y="447" text-anchor="end" font-size="13" fill="#15201e">GOA human</text>
<rect x="650" y="432" width="225" height="22" fill="#bd3a30"/>
<text x="881" y="447" font-size="13" fill="#15201e">~45</text>
</svg>
