<svg xmlns="http://www.w3.org/2000/svg" viewBox="0 0 960 520" width="960" height="520" font-family="Helvetica, Arial, sans-serif">
<rect width="960" height="520" fill="#ffffff"/>
<text x="24" y="34" font-size="22" font-weight="bold" fill="#15201e">Baseline expression of 12 poplar CASPLs (median TPM)</text>
<text x="24" y="58" font-size="13" fill="#56655f">EBI Expression Atlas E-GEOD-81077; bioinformatics/expression/results/caspl_baseline_tpm.tsv</text>
<text x="210" y="98" font-size="15" text-anchor="middle" fill="#15201e">leaf</text>
<text x="330" y="98" font-size="15" text-anchor="middle" fill="#15201e">phloem</text>
<text x="450" y="98" font-size="15" text-anchor="middle" fill="#15201e">primary root</text>
<text x="570" y="98" font-size="15" text-anchor="middle" fill="#15201e">shoot apex</text>
<text x="690" y="98" font-size="15" text-anchor="middle" fill="#15201e">xylem</text>
<text x="140" y="130.4" font-size="14" text-anchor="end" fill="#15201e" font-weight="bold">CASPL1B1</text>
<rect x="150" y="110.0" width="117" height="27.0" fill="#f7fafa"/>
<text x="208.8" y="128.6" font-size="12" text-anchor="middle" fill="#15201e">0.2</text>
<rect x="270" y="110.0" width="117" height="27.0" fill="#eaf2f1"/>
<text x="328.8" y="128.6" font-size="12" text-anchor="middle" fill="#15201e">0.6</text>
<rect x="390" y="110.0" width="117" height="27.0" fill="#257975"/>
<text x="448.8" y="128.6" font-size="12" text-anchor="middle" fill="#ffffff">120</text>
<rect x="510" y="110.0" width="117" height="27.0" fill="#ffffff"/>
<text x="568.8" y="128.6" font-size="12" text-anchor="middle" fill="#15201e">0</text>
<rect x="630" y="110.0" width="117" height="27.0" fill="#f7fafa"/>
<text x="688.8" y="128.6" font-size="12" text-anchor="middle" fill="#15201e">0.2</text>
<text x="140" y="160.4" font-size="14" text-anchor="end" fill="#15201e">CASPL1C1</text>
<rect x="150" y="140.0" width="117" height="27.0" fill="#ffffff"/>
<text x="208.8" y="158.6" font-size="12" text-anchor="middle" fill="#15201e">0</text>
<rect x="270" y="140.0" width="117" height="27.0" fill="#ffffff"/>
<text x="328.8" y="158.6" font-size="12" text-anchor="middle" fill="#15201e">0</text>
<rect x="390" y="140.0" width="117" height="27.0" fill="#ffffff"/>
<text x="448.8" y="158.6" font-size="12" text-anchor="middle" fill="#15201e">0</text>
<rect x="510" y="140.0" width="117" height="27.0" fill="#ffffff"/>
<text x="568.8" y="158.6" font-size="12" text-anchor="middle" fill="#15201e">0</text>
<rect x="630" y="140.0" width="117" height="27.0" fill="#ffffff"/>
<text x="688.8" y="158.6" font-size="12" text-anchor="middle" fill="#15201e">0</text>
<text x="140" y="190.4" font-size="14" text-anchor="end" fill="#15201e">CASPL1F1</text>
<rect x="150" y="170.0" width="117" height="27.0" fill="#ffffff"/>
<text x="208.8" y="188.6" font-size="12" text-anchor="middle" fill="#15201e">0</text>
<rect x="270" y="170.0" width="117" height="27.0" fill="#ffffff"/>
<text x="328.8" y="188.6" font-size="12" text-anchor="middle" fill="#15201e">0</text>
<rect x="390" y="170.0" width="117" height="27.0" fill="#ffffff"/>
<text x="448.8" y="188.6" font-size="12" text-anchor="middle" fill="#15201e">0</text>
<rect x="510" y="170.0" width="117" height="27.0" fill="#ffffff"/>
<text x="568.8" y="188.6" font-size="12" text-anchor="middle" fill="#15201e">0</text>
<rect x="630" y="170.0" width="117" height="27.0" fill="#ffffff"/>
<text x="688.8" y="188.6" font-size="12" text-anchor="middle" fill="#15201e">0</text>
<text x="140" y="220.4" font-size="14" text-anchor="end" fill="#15201e">CASPL1F2</text>
<rect x="150" y="200.0" width="117" height="27.0" fill="#7eb0ad"/>
<text x="208.8" y="218.6" font-size="12" text-anchor="middle" fill="#15201e">16</text>
<rect x="270" y="200.0" width="117" height="27.0" fill="#73a9a6"/>
<text x="328.8" y="218.6" font-size="12" text-anchor="middle" fill="#ffffff">21</text>
<rect x="390" y="200.0" width="117" height="27.0" fill="#fbfcfc"/>
<text x="448.8" y="218.6" font-size="12" text-anchor="middle" fill="#15201e">0.1</text>
<rect x="510" y="200.0" width="117" height="27.0" fill="#79adaa"/>
<text x="568.8" y="218.6" font-size="12" text-anchor="middle" fill="#ffffff">18</text>
<rect x="630" y="200.0" width="117" height="27.0" fill="#639f9c"/>
<text x="688.8" y="218.6" font-size="12" text-anchor="middle" fill="#ffffff">30</text>
<text x="140" y="250.4" font-size="14" text-anchor="end" fill="#15201e">CASPL2A2</text>
<rect x="150" y="230.0" width="117" height="27.0" fill="#6da5a2"/>
<text x="208.8" y="248.6" font-size="12" text-anchor="middle" fill="#ffffff">24</text>
<rect x="270" y="230.0" width="117" height="27.0" fill="#cde0df"/>
<text x="328.8" y="248.6" font-size="12" text-anchor="middle" fill="#15201e">2</text>
<rect x="390" y="230.0" width="117" height="27.0" fill="#fbfcfc"/>
<text x="448.8" y="248.6" font-size="12" text-anchor="middle" fill="#15201e">0.1</text>
<rect x="510" y="230.0" width="117" height="27.0" fill="#96bfbd"/>
<text x="568.8" y="248.6" font-size="12" text-anchor="middle" fill="#15201e">9</text>
<rect x="630" y="230.0" width="117" height="27.0" fill="#fbfcfc"/>
<text x="688.8" y="248.6" font-size="12" text-anchor="middle" fill="#15201e">0.1</text>
<text x="140" y="280.4" font-size="14" text-anchor="end" fill="#15201e">CASPL2B2</text>
<rect x="150" y="260.0" width="117" height="27.0" fill="#92bcba"/>
<text x="208.8" y="278.6" font-size="12" text-anchor="middle" fill="#15201e">10</text>
<rect x="270" y="260.0" width="117" height="27.0" fill="#599995"/>
<text x="328.8" y="278.6" font-size="12" text-anchor="middle" fill="#ffffff">38</text>
<rect x="390" y="260.0" width="117" height="27.0" fill="#8ab7b5"/>
<text x="448.8" y="278.6" font-size="12" text-anchor="middle" fill="#15201e">12</text>
<rect x="510" y="260.0" width="117" height="27.0" fill="#77aba9"/>
<text x="568.8" y="278.6" font-size="12" text-anchor="middle" fill="#ffffff">19</text>
<rect x="630" y="260.0" width="117" height="27.0" fill="#599995"/>
<text x="688.8" y="278.6" font-size="12" text-anchor="middle" fill="#ffffff">38</text>
<text x="140" y="310.4" font-size="14" text-anchor="end" fill="#15201e">CASPL2C1</text>
<rect x="150" y="290.0" width="117" height="27.0" fill="#6ba4a1"/>
<text x="208.8" y="308.6" font-size="12" text-anchor="middle" fill="#ffffff">25</text>
<rect x="270" y="290.0" width="117" height="27.0" fill="#f3f8f7"/>
<text x="328.8" y="308.6" font-size="12" text-anchor="middle" fill="#15201e">0.3</text>
<rect x="390" y="290.0" width="117" height="27.0" fill="#cde0df"/>
<text x="448.8" y="308.6" font-size="12" text-anchor="middle" fill="#15201e">2</text>
<rect x="510" y="290.0" width="117" height="27.0" fill="#edf4f3"/>
<text x="568.8" y="308.6" font-size="12" text-anchor="middle" fill="#15201e">0.5</text>
<rect x="630" y="290.0" width="117" height="27.0" fill="#fbfcfc"/>
<text x="688.8" y="308.6" font-size="12" text-anchor="middle" fill="#15201e">0.1</text>
<text x="140" y="340.4" font-size="14" text-anchor="end" fill="#15201e">CASPL3A1</text>
<rect x="150" y="320.0" width="117" height="27.0" fill="#aecdcb"/>
<text x="208.8" y="338.6" font-size="12" text-anchor="middle" fill="#15201e">5</text>
<rect x="270" y="320.0" width="117" height="27.0" fill="#539592"/>
<text x="328.8" y="338.6" font-size="12" text-anchor="middle" fill="#ffffff">43</text>
<rect x="390" y="320.0" width="117" height="27.0" fill="#84b3b1"/>
<text x="448.8" y="338.6" font-size="12" text-anchor="middle" fill="#15201e">14</text>
<rect x="510" y="320.0" width="117" height="27.0" fill="#5d9c98"/>
<text x="568.8" y="338.6" font-size="12" text-anchor="middle" fill="#ffffff">34</text>
<rect x="630" y="320.0" width="117" height="27.0" fill="#73a9a6"/>
<text x="688.8" y="338.6" font-size="12" text-anchor="middle" fill="#ffffff">21</text>
<text x="140" y="370.4" font-size="14" text-anchor="end" fill="#15201e">CASPL3A2</text>
<rect x="150" y="350.0" width="117" height="27.0" fill="#c0d8d7"/>
<text x="208.8" y="368.6" font-size="12" text-anchor="middle" fill="#15201e">3</text>
<rect x="270" y="350.0" width="117" height="27.0" fill="#488f8b"/>
<text x="328.8" y="368.6" font-size="12" text-anchor="middle" fill="#ffffff">55</text>
<rect x="390" y="350.0" width="117" height="27.0" fill="#4e928f"/>
<text x="448.8" y="368.6" font-size="12" text-anchor="middle" fill="#ffffff">48</text>
<rect x="510" y="350.0" width="117" height="27.0" fill="#87b5b3"/>
<text x="568.8" y="368.6" font-size="12" text-anchor="middle" fill="#15201e">13</text>
<rect x="630" y="350.0" width="117" height="27.0" fill="#92bcba"/>
<text x="688.8" y="368.6" font-size="12" text-anchor="middle" fill="#15201e">10</text>
<text x="140" y="400.4" font-size="14" text-anchor="end" fill="#15201e" font-weight="bold">CASPL4C1</text>
<rect x="150" y="380.0" width="117" height="27.0" fill="#cde0df"/>
<text x="208.8" y="398.6" font-size="12" text-anchor="middle" fill="#15201e">2</text>
<rect x="270" y="380.0" width="117" height="27.0" fill="#cde0df"/>
<text x="328.8" y="398.6" font-size="12" text-anchor="middle" fill="#15201e">2</text>
<rect x="390" y="380.0" width="117" height="27.0" fill="#cde0df"/>
<text x="448.8" y="398.6" font-size="12" text-anchor="middle" fill="#15201e">2</text>
<rect x="510" y="380.0" width="117" height="27.0" fill="#e0eceb"/>
<text x="568.8" y="398.6" font-size="12" text-anchor="middle" fill="#15201e">1</text>
<rect x="630" y="380.0" width="117" height="27.0" fill="#edf4f3"/>
<text x="688.8" y="398.6" font-size="12" text-anchor="middle" fill="#15201e">0.5</text>
<text x="140" y="430.4" font-size="14" text-anchor="end" fill="#15201e">CASPL4C2</text>
<rect x="150" y="410.0" width="117" height="27.0" fill="#cde0df"/>
<text x="208.8" y="428.6" font-size="12" text-anchor="middle" fill="#15201e">2</text>
<rect x="270" y="410.0" width="117" height="27.0" fill="#64a09d"/>
<text x="328.8" y="428.6" font-size="12" text-anchor="middle" fill="#ffffff">29</text>
<rect x="390" y="410.0" width="117" height="27.0" fill="#a7c9c7"/>
<text x="448.8" y="428.6" font-size="12" text-anchor="middle" fill="#15201e">6</text>
<rect x="510" y="410.0" width="117" height="27.0" fill="#8ab7b5"/>
<text x="568.8" y="428.6" font-size="12" text-anchor="middle" fill="#15201e">12</text>
<rect x="630" y="410.0" width="117" height="27.0" fill="#cde0df"/>
<text x="688.8" y="428.6" font-size="12" text-anchor="middle" fill="#15201e">2</text>
<text x="140" y="460.4" font-size="14" text-anchor="end" fill="#15201e">CASPL4D1</text>
<rect x="150" y="440.0" width="117" height="27.0" fill="#f0f6f5"/>
<text x="208.8" y="458.6" font-size="12" text-anchor="middle" fill="#15201e">0.4</text>
<rect x="270" y="440.0" width="117" height="27.0" fill="#ffffff"/>
<text x="328.8" y="458.6" font-size="12" text-anchor="middle" fill="#15201e">0</text>
<rect x="390" y="440.0" width="117" height="27.0" fill="#b6d2d1"/>
<text x="448.8" y="458.6" font-size="12" text-anchor="middle" fill="#15201e">4</text>
<rect x="510" y="440.0" width="117" height="27.0" fill="#f7fafa"/>
<text x="568.8" y="458.6" font-size="12" text-anchor="middle" fill="#15201e">0.2</text>
<rect x="630" y="440.0" width="117" height="27.0" fill="#ffffff"/>
<text x="688.8" y="458.6" font-size="12" text-anchor="middle" fill="#15201e">0</text>
<text x="780" y="120" font-size="13" fill="#15201e" font-weight="bold">Reading</text>
<text x="780" y="144" font-size="13" fill="#56655f">CASPL1B1: 120 TPM in</text>
<text x="780" y="162" font-size="13" fill="#56655f">primary root, ~0 elsewhere</text>
<text x="780" y="180" font-size="13" fill="#56655f">(endodermis/suberin</text>
<text x="780" y="198" font-size="13" fill="#56655f">hypothesis supported)</text>
<text x="780" y="216" font-size="13" fill="#56655f"></text>
<text x="780" y="234" font-size="13" fill="#56655f">CASPL4C1: low baseline;</text>
<text x="780" y="252" font-size="13" fill="#56655f">most stress-responsive</text>
<text x="780" y="270" font-size="13" fill="#56655f">(13 significant contrasts)</text>
</svg>