<svg xmlns="http://www.w3.org/2000/svg" viewBox="0 0 960 520" width="960" height="520" font-family="Helvetica, Arial, sans-serif">
<rect width="960" height="520" fill="#ffffff"/>
<text x="40" y="52" font-size="26" font-weight="700" fill="#15201e">Reviewer verdicts on 3,652 InterPro2GO annotations</text>
<text x="40" y="82" font-size="17" fill="#56655f">Action taken in gene reviews (suspect_interpro_mappings.tsv); 1,732 flagged (47%)</text>
<text x="318" y="137.3" font-size="18" text-anchor="end" fill="#15201e">ACCEPT</text>
<rect x="330" y="116.6" width="520.0" height="30.8" rx="3" fill="#1d8a4b"/>
<text x="858.0" y="137.3" font-size="18" fill="#15201e" font-weight="600">1,870</text>
<text x="318" y="181.3" font-size="18" text-anchor="end" fill="#15201e">MODIFY</text>
<rect x="330" y="160.6" width="169.3" height="30.8" rx="3" fill="#b8620f"/>
<text x="507.3" y="181.3" font-size="18" fill="#15201e" font-weight="600">609</text>
<text x="318" y="225.3" font-size="18" text-anchor="end" fill="#15201e">KEEP_AS_NON_CORE</text>
<rect x="330" y="204.6" width="145.4" height="30.8" rx="3" fill="#56655f"/>
<text x="483.4" y="225.3" font-size="18" fill="#15201e" font-weight="600">523</text>
<text x="318" y="269.3" font-size="18" text-anchor="end" fill="#15201e">MARK_AS_OVER_ANNOTATED</text>
<rect x="330" y="248.6" width="108.7" height="30.8" rx="3" fill="#7657a3"/>
<text x="446.7" y="269.3" font-size="18" fill="#15201e" font-weight="600">391</text>
<text x="318" y="313.3" font-size="18" text-anchor="end" fill="#15201e">REMOVE</text>
<rect x="330" y="292.6" width="53.9" height="30.8" rx="3" fill="#bd3a30"/>
<text x="391.9" y="313.3" font-size="18" fill="#15201e" font-weight="600">194</text>
<text x="318" y="357.3" font-size="18" text-anchor="end" fill="#15201e">NEW</text>
<rect x="330" y="336.6" width="8.3" height="30.8" rx="3" fill="#1d68b3"/>
<text x="346.3" y="357.3" font-size="18" fill="#15201e" font-weight="600">30</text>
<text x="318" y="401.3" font-size="18" text-anchor="end" fill="#15201e">PENDING</text>
<rect x="330" y="380.6" width="5.6" height="30.8" rx="3" fill="#8fa39c"/>
<text x="343.6" y="401.3" font-size="18" fill="#15201e" font-weight="600">20</text>
<text x="318" y="445.3" font-size="18" text-anchor="end" fill="#15201e">UNDECIDED</text>
<rect x="330" y="424.6" width="4.2" height="30.8" rx="3" fill="#8fa39c"/>
<text x="342.2" y="445.3" font-size="18" fill="#15201e" font-weight="600">15</text>
</svg>