<svg xmlns="http://www.w3.org/2000/svg" viewBox="0 0 960 520" width="960" height="520" font-family="Helvetica, Arial, sans-serif">
<rect width="960" height="520" fill="#ffffff"/>
<text x="24" y="32" font-size="20" font-weight="bold" fill="#15201e">Review actions across the 20 cilia genes</text>
<rect x="24" y="44" width="12" height="12" fill="#1d8a4b"/><text x="40" y="55" font-size="12" fill="#56655f">ACCEPT</text>
<rect x="104.4" y="44" width="12" height="12" fill="#8fa39c"/><text x="120.4" y="55" font-size="12" fill="#56655f">KEEP_AS_NON_CORE</text>
<rect x="268.8" y="44" width="12" height="12" fill="#7657a3"/><text x="284.8" y="55" font-size="12" fill="#56655f">MARK_AS_OVER_ANNOTATED</text>
<rect x="483.6" y="44" width="12" height="12" fill="#b8620f"/><text x="499.6" y="55" font-size="12" fill="#56655f">MODIFY</text>
<rect x="564.0" y="44" width="12" height="12" fill="#bd3a30"/><text x="580.0" y="55" font-size="12" fill="#56655f">REMOVE</text>
<rect x="644.4" y="44" width="12" height="12" fill="#c9c9c9"/><text x="660.4" y="55" font-size="12" fill="#56655f">UNDECIDED</text>
<rect x="750.0" y="44" width="12" height="12" fill="#1d68b3"/><text x="766.0" y="55" font-size="12" fill="#56655f">NEW</text>
<text x="102" y="83.3" font-size="14" fill="#15201e" text-anchor="end" font-style="italic">daf-19</text>
<rect x="110.0" y="72.3" width="169.0" height="14.8" fill="#1d8a4b"/>
<rect x="279.0" y="72.3" width="26.0" height="14.8" fill="#8fa39c"/>
<rect x="305.0" y="72.3" width="13.0" height="14.8" fill="#b8620f"/>
<rect x="318.0" y="72.3" width="13.0" height="14.8" fill="#1d68b3"/>
<text x="337.0" y="83.3" font-size="12" fill="#56655f">17</text>
<text x="102" y="102.8" font-size="14" fill="#15201e" text-anchor="end" font-style="italic">osm-3</text>
<rect x="110.0" y="91.8" width="494.0" height="14.8" fill="#1d8a4b"/>
<rect x="604.0" y="91.8" width="26.0" height="14.8" fill="#8fa39c"/>
<rect x="630.0" y="91.8" width="26.0" height="14.8" fill="#7657a3"/>
<rect x="656.0" y="91.8" width="52.0" height="14.8" fill="#b8620f"/>
<rect x="708.0" y="91.8" width="13.0" height="14.8" fill="#c9c9c9"/>
<text x="727.0" y="102.8" font-size="12" fill="#56655f">47</text>
<text x="102" y="122.3" font-size="14" fill="#15201e" text-anchor="end" font-style="italic">osm-5</text>
<rect x="110.0" y="111.3" width="234.0" height="14.8" fill="#1d8a4b"/>
<rect x="344.0" y="111.3" width="52.0" height="14.8" fill="#8fa39c"/>
<rect x="396.0" y="111.3" width="13.0" height="14.8" fill="#bd3a30"/>
<text x="415.0" y="122.3" font-size="12" fill="#56655f">23</text>
<text x="102" y="141.8" font-size="14" fill="#15201e" text-anchor="end" font-style="italic">che-2</text>
<rect x="110.0" y="130.8" width="143.0" height="14.8" fill="#1d8a4b"/>
<rect x="253.0" y="130.8" width="91.0" height="14.8" fill="#8fa39c"/>
<rect x="344.0" y="130.8" width="13.0" height="14.8" fill="#7657a3"/>
<rect x="357.0" y="130.8" width="13.0" height="14.8" fill="#b8620f"/>
<rect x="370.0" y="130.8" width="13.0" height="14.8" fill="#1d68b3"/>
<text x="389.0" y="141.8" font-size="12" fill="#56655f">21</text>
<text x="102" y="161.3" font-size="14" fill="#15201e" text-anchor="end" font-style="italic">che-3</text>
<rect x="110.0" y="150.3" width="312.0" height="14.8" fill="#1d8a4b"/>
<rect x="422.0" y="150.3" width="52.0" height="14.8" fill="#8fa39c"/>
<rect x="474.0" y="150.3" width="26.0" height="14.8" fill="#7657a3"/>
<rect x="500.0" y="150.3" width="13.0" height="14.8" fill="#b8620f"/>
<rect x="513.0" y="150.3" width="26.0" height="14.8" fill="#bd3a30"/>
<text x="545.0" y="161.3" font-size="12" fill="#56655f">33</text>
<text x="102" y="180.8" font-size="14" fill="#15201e" text-anchor="end" font-style="italic">bbs-1</text>
<rect x="110.0" y="169.8" width="221.0" height="14.8" fill="#1d8a4b"/>
<rect x="331.0" y="169.8" width="13.0" height="14.8" fill="#8fa39c"/>
<rect x="344.0" y="169.8" width="13.0" height="14.8" fill="#b8620f"/>
<rect x="357.0" y="169.8" width="39.0" height="14.8" fill="#bd3a30"/>
<rect x="396.0" y="169.8" width="13.0" height="14.8" fill="#1d68b3"/>
<text x="415.0" y="180.8" font-size="12" fill="#56655f">23</text>
<text x="102" y="200.3" font-size="14" fill="#15201e" text-anchor="end" font-style="italic">bbs-8</text>
<rect x="110.0" y="189.3" width="286.0" height="14.8" fill="#1d8a4b"/>
<rect x="396.0" y="189.3" width="26.0" height="14.8" fill="#8fa39c"/>
<rect x="422.0" y="189.3" width="39.0" height="14.8" fill="#b8620f"/>
<rect x="461.0" y="189.3" width="13.0" height="14.8" fill="#1d68b3"/>
<text x="480.0" y="200.3" font-size="12" fill="#56655f">28</text>
<text x="102" y="219.8" font-size="14" fill="#15201e" text-anchor="end" font-style="italic">mks-3</text>
<rect x="110.0" y="208.8" width="78.0" height="14.8" fill="#1d8a4b"/>
<rect x="188.0" y="208.8" width="52.0" height="14.8" fill="#1d68b3"/>
<text x="246.0" y="219.8" font-size="12" fill="#56655f">10</text>
<text x="102" y="239.3" font-size="14" fill="#15201e" text-anchor="end" font-style="italic">nphp-1</text>
<rect x="110.0" y="228.3" width="143.0" height="14.8" fill="#1d8a4b"/>
<rect x="253.0" y="228.3" width="39.0" height="14.8" fill="#8fa39c"/>
<rect x="292.0" y="228.3" width="26.0" height="14.8" fill="#b8620f"/>
<rect x="318.0" y="228.3" width="13.0" height="14.8" fill="#c9c9c9"/>
<text x="337.0" y="239.3" font-size="12" fill="#56655f">17</text>
<text x="102" y="258.8" font-size="14" fill="#15201e" text-anchor="end" font-style="italic">nphp-4</text>
<rect x="110.0" y="247.8" width="260.0" height="14.8" fill="#1d8a4b"/>
<rect x="370.0" y="247.8" width="104.0" height="14.8" fill="#8fa39c"/>
<rect x="474.0" y="247.8" width="13.0" height="14.8" fill="#7657a3"/>
<rect x="487.0" y="247.8" width="13.0" height="14.8" fill="#b8620f"/>
<rect x="500.0" y="247.8" width="13.0" height="14.8" fill="#1d68b3"/>
<text x="519.0" y="258.8" font-size="12" fill="#56655f">31</text>
<text x="102" y="278.3" font-size="14" fill="#15201e" text-anchor="end" font-style="italic">mks-1</text>
<rect x="110.0" y="267.3" width="26.0" height="14.8" fill="#1d8a4b"/>
<rect x="136.0" y="267.3" width="13.0" height="14.8" fill="#7657a3"/>
<rect x="149.0" y="267.3" width="13.0" height="14.8" fill="#b8620f"/>
<rect x="162.0" y="267.3" width="39.0" height="14.8" fill="#1d68b3"/>
<text x="207.0" y="278.3" font-size="12" fill="#56655f">7</text>
<text x="102" y="297.8" font-size="14" fill="#15201e" text-anchor="end" font-style="italic">mks-5</text>
<rect x="110.0" y="286.8" width="260.0" height="14.8" fill="#1d8a4b"/>
<rect x="370.0" y="286.8" width="13.0" height="14.8" fill="#8fa39c"/>
<rect x="383.0" y="286.8" width="26.0" height="14.8" fill="#7657a3"/>
<rect x="409.0" y="286.8" width="13.0" height="14.8" fill="#1d68b3"/>
<text x="428.0" y="297.8" font-size="12" fill="#56655f">24</text>
<text x="102" y="317.3" font-size="14" fill="#15201e" text-anchor="end" font-style="italic">mks-6</text>
<rect x="110.0" y="306.3" width="143.0" height="14.8" fill="#1d8a4b"/>
<text x="259.0" y="317.3" font-size="12" fill="#56655f">11</text>
<text x="102" y="336.8" font-size="14" fill="#15201e" text-anchor="end" font-style="italic">mksr-2</text>
<rect x="110.0" y="325.8" width="117.0" height="14.8" fill="#1d8a4b"/>
<rect x="227.0" y="325.8" width="26.0" height="14.8" fill="#8fa39c"/>
<rect x="253.0" y="325.8" width="39.0" height="14.8" fill="#7657a3"/>
<rect x="292.0" y="325.8" width="39.0" height="14.8" fill="#b8620f"/>
<rect x="331.0" y="325.8" width="13.0" height="14.8" fill="#1d68b3"/>
<text x="350.0" y="336.8" font-size="12" fill="#56655f">18</text>
<text x="102" y="356.3" font-size="14" fill="#15201e" text-anchor="end" font-style="italic">bbs-2</text>
<rect x="110.0" y="345.3" width="182.0" height="14.8" fill="#1d8a4b"/>
<rect x="292.0" y="345.3" width="13.0" height="14.8" fill="#7657a3"/>
<rect x="305.0" y="345.3" width="26.0" height="14.8" fill="#b8620f"/>
<rect x="331.0" y="345.3" width="39.0" height="14.8" fill="#1d68b3"/>
<text x="376.0" y="356.3" font-size="12" fill="#56655f">20</text>
<text x="102" y="375.8" font-size="14" fill="#15201e" text-anchor="end" font-style="italic">bbs-5</text>
<rect x="110.0" y="364.8" width="182.0" height="14.8" fill="#1d8a4b"/>
<rect x="292.0" y="364.8" width="13.0" height="14.8" fill="#8fa39c"/>
<rect x="305.0" y="364.8" width="13.0" height="14.8" fill="#b8620f"/>
<rect x="318.0" y="364.8" width="13.0" height="14.8" fill="#c9c9c9"/>
<text x="337.0" y="375.8" font-size="12" fill="#56655f">17</text>
<text x="102" y="395.3" font-size="14" fill="#15201e" text-anchor="end" font-style="italic">bbs-7</text>
<rect x="110.0" y="384.3" width="260.0" height="14.8" fill="#1d8a4b"/>
<rect x="370.0" y="384.3" width="26.0" height="14.8" fill="#8fa39c"/>
<rect x="396.0" y="384.3" width="26.0" height="14.8" fill="#b8620f"/>
<rect x="422.0" y="384.3" width="13.0" height="14.8" fill="#1d68b3"/>
<text x="441.0" y="395.3" font-size="12" fill="#56655f">25</text>
<text x="102" y="414.8" font-size="14" fill="#15201e" text-anchor="end" font-style="italic">lov-1</text>
<rect x="110.0" y="403.8" width="325.0" height="14.8" fill="#1d8a4b"/>
<rect x="435.0" y="403.8" width="65.0" height="14.8" fill="#b8620f"/>
<text x="506.0" y="414.8" font-size="12" fill="#56655f">30</text>
<text x="102" y="434.3" font-size="14" fill="#15201e" text-anchor="end" font-style="italic">pkd-2</text>
<rect x="110.0" y="423.3" width="780.0" height="14.8" fill="#1d8a4b"/>
<text x="896.0" y="434.3" font-size="12" fill="#56655f">60</text>
<text x="102" y="453.8" font-size="14" fill="#15201e" text-anchor="end" font-style="italic">pef-1</text>
<rect x="110.0" y="442.8" width="143.0" height="14.8" fill="#1d8a4b"/>
<rect x="253.0" y="442.8" width="13.0" height="14.8" fill="#8fa39c"/>
<rect x="266.0" y="442.8" width="26.0" height="14.8" fill="#7657a3"/>
<rect x="292.0" y="442.8" width="13.0" height="14.8" fill="#b8620f"/>
<rect x="305.0" y="442.8" width="26.0" height="14.8" fill="#bd3a30"/>
<rect x="331.0" y="442.8" width="39.0" height="14.8" fill="#1d68b3"/>
<text x="376.0" y="453.8" font-size="12" fill="#56655f">20</text>
<text x="110" y="496" font-size="12" fill="#56655f">Rows per gene in genes/worm/&lt;gene&gt;/&lt;gene&gt;-ai-review.yaml, coloured by review action (NEW = proposed additions).</text>
</svg>