<svg xmlns="http://www.w3.org/2000/svg" viewBox="0 0 960 490" width="960" height="490" font-family="Helvetica, Arial, sans-serif">
<rect width="960" height="490" fill="#ffffff"/>
<text x="30" y="40" font-size="22" font-weight="bold" fill="#15201e">Actions on the four reviewed chromatin genes</text>
<text x="30" y="64" font-size="15" fill="#56655f">Annotation rows per gene (existing, plus proposed NEW), coloured by review action (counts from each *-ai-review.yaml)</text>
<text x="98" y="127" font-size="19" font-weight="bold" text-anchor="end" fill="#15201e">SPT16</text>
<rect x="110.0" y="103" width="374.0" height="38" fill="#1d8a4b"/>
<text x="297.0" y="128" font-size="16" text-anchor="middle" fill="#ffffff">34</text>
<rect x="484.0" y="103" width="44.0" height="38" fill="#0e6b66"/>
<text x="506.0" y="128" font-size="16" text-anchor="middle" fill="#ffffff">4</text>
<rect x="528.0" y="103" width="11.0" height="38" fill="#b8620f"/>
<rect x="539.0" y="103" width="286.0" height="38" fill="#bd3a30"/>
<text x="682.0" y="128" font-size="16" text-anchor="middle" fill="#ffffff">26</text>
<text x="833.0" y="128" font-size="16" fill="#56655f">65</text>
<text x="98" y="209" font-size="19" font-weight="bold" text-anchor="end" fill="#15201e">POB3</text>
<rect x="110.0" y="185" width="209.0" height="38" fill="#1d8a4b"/>
<text x="214.5" y="210" font-size="16" text-anchor="middle" fill="#ffffff">19</text>
<rect x="319.0" y="185" width="11.0" height="38" fill="#7657a3"/>
<rect x="330.0" y="185" width="11.0" height="38" fill="#b8620f"/>
<rect x="341.0" y="185" width="121.0" height="38" fill="#bd3a30"/>
<text x="470.0" y="210" font-size="16" fill="#56655f">32</text>
<text x="110" y="243" font-size="14" fill="#15201e">1 OVER_ANNOTATED, 1 MODIFY, 11 REMOVE</text>
<text x="98" y="291" font-size="19" font-weight="bold" text-anchor="end" fill="#15201e">CHD1</text>
<rect x="110.0" y="267" width="561.0" height="38" fill="#1d8a4b"/>
<text x="390.5" y="292" font-size="16" text-anchor="middle" fill="#ffffff">51</text>
<rect x="671.0" y="267" width="121.0" height="38" fill="#0e6b66"/>
<text x="731.5" y="292" font-size="16" text-anchor="middle" fill="#ffffff">11</text>
<rect x="792.0" y="267" width="22.0" height="38" fill="#bd3a30"/>
<rect x="814.0" y="267" width="11.0" height="38" fill="#8fa39c"/>
<text x="833.0" y="292" font-size="16" fill="#56655f">65</text>
<text x="110" y="325" font-size="14" fill="#15201e">2 REMOVE, 1 UNDECIDED</text>
<text x="98" y="373" font-size="19" font-weight="bold" text-anchor="end" fill="#15201e">SWI1</text>
<rect x="110.0" y="349" width="220.0" height="38" fill="#1d8a4b"/>
<text x="220.0" y="374" font-size="16" text-anchor="middle" fill="#ffffff">20</text>
<rect x="330.0" y="349" width="99.0" height="38" fill="#0e6b66"/>
<text x="379.5" y="374" font-size="16" text-anchor="middle" fill="#ffffff">9</text>
<rect x="429.0" y="349" width="121.0" height="38" fill="#bd3a30"/>
<text x="489.5" y="374" font-size="16" text-anchor="middle" fill="#ffffff">11</text>
<rect x="550.0" y="349" width="11.0" height="38" fill="#1d68b3"/>
<text x="569.0" y="374" font-size="16" fill="#56655f">41</text>
<text x="110" y="407" font-size="14" fill="#15201e">11 REMOVE, 1 NEW</text>
<rect x="110" y="431" width="14" height="14" fill="#1d8a4b"/><text x="129" y="443" font-size="13" fill="#15201e">ACCEPT</text>
<rect x="185.6" y="431" width="14" height="14" fill="#0e6b66"/><text x="204.6" y="443" font-size="13" fill="#15201e">KEEP_AS_NON_CORE</text>
<rect x="337.2" y="431" width="14" height="14" fill="#7657a3"/><text x="356.2" y="443" font-size="13" fill="#15201e">OVER_ANNOTATED</text>
<rect x="473.59999999999997" y="431" width="14" height="14" fill="#b8620f"/><text x="492.59999999999997" y="443" font-size="13" fill="#15201e">MODIFY</text>
<rect x="549.1999999999999" y="431" width="14" height="14" fill="#bd3a30"/><text x="568.1999999999999" y="443" font-size="13" fill="#15201e">REMOVE</text>
<rect x="624.8" y="431" width="14" height="14" fill="#1d68b3"/><text x="643.8" y="443" font-size="13" fill="#15201e">NEW</text>
<rect x="677.5999999999999" y="431" width="14" height="14" fill="#8fa39c"/><text x="696.5999999999999" y="443" font-size="13" fill="#15201e">UNDECIDED</text>
<text x="110" y="473" font-size="15" fill="#56655f">203 rows incl. 1 proposed NEW: 124 ACCEPT, 24 KEEP_AS_NON_CORE, 50 REMOVE, 2 MODIFY, 1 OVER_ANNOTATED, 1 UNDECIDED, 1 NEW</text>
</svg>
