<svg xmlns="http://www.w3.org/2000/svg" viewBox="0 0 960 520" font-family="Helvetica, Arial, sans-serif">
  <defs>
    <marker id="a" viewBox="0 0 10 10" refX="9" refY="5" markerWidth="8" markerHeight="8" orient="auto"><path d="M0 0 L10 5 L0 10 z" fill="#0e6b66"/></marker>
    <marker id="g" viewBox="0 0 10 10" refX="9" refY="5" markerWidth="8" markerHeight="8" orient="auto"><path d="M0 0 L10 5 L0 10 z" fill="#b8620f"/></marker>
  </defs>
  <rect width="960" height="520" fill="#ffffff"/>
  <text x="40" y="40" font-size="15" font-weight="600" fill="#bd3a30">4 OBSOLETE sub-pathway terms (BP)</text>
  <g font-size="14" fill="#15201e">
    <rect x="40" y="56" width="400" height="62" rx="10" fill="#fbeceb" stroke="#bd3a30" stroke-width="1.5" stroke-dasharray="7 5"/>
    <text x="58" y="82" font-weight="600">GO:0009255</text>
    <text x="58" y="104">ED pathway through 6-phosphogluconate</text>
    <rect x="40" y="128" width="400" height="62" rx="10" fill="#fbeceb" stroke="#bd3a30" stroke-width="1.5" stroke-dasharray="7 5"/>
    <text x="58" y="154" font-weight="600">GO:0061679</text>
    <text x="58" y="176">ED pathway through gluconate</text>
    <rect x="40" y="200" width="400" height="62" rx="10" fill="#fbeceb" stroke="#bd3a30" stroke-width="1.5" stroke-dasharray="7 5"/>
    <text x="58" y="226" font-weight="600">GO:0061680</text>
    <text x="58" y="248">... through gluconate to D-glyceraldehyde</text>
    <rect x="40" y="272" width="400" height="62" rx="10" fill="#fbeceb" stroke="#bd3a30" stroke-width="1.5" stroke-dasharray="7 5"/>
    <text x="58" y="298" font-weight="600">GO:0061681</text>
    <text x="58" y="320">... through gluconate to D-glyceraldehyde-3-P</text>
  </g>
  <path d="M442 87 C 520 87, 540 180, 596 190" stroke="#0e6b66" stroke-width="2.2" fill="none" marker-end="url(#a)"/>
  <path d="M442 159 C 520 159, 540 190, 596 194" stroke="#0e6b66" stroke-width="2.2" fill="none" marker-end="url(#a)"/>
  <path d="M442 231 C 520 231, 540 200, 596 198" stroke="#0e6b66" stroke-width="2.2" fill="none" marker-end="url(#a)"/>
  <path d="M442 303 C 520 303, 540 210, 596 202" stroke="#0e6b66" stroke-width="2.2" fill="none" marker-end="url(#a)"/>
  <rect x="600" y="140" width="320" height="112" rx="12" fill="#dcefec" stroke="#0e6b66" stroke-width="1.8"/>
  <text x="620" y="168" font-size="13" font-weight="600" fill="#0e6b66">REPLACEMENT · parent term</text>
  <text x="620" y="198" font-size="20" font-weight="600" fill="#15201e">GO:0061678</text>
  <text x="620" y="224" font-size="16" fill="#15201e">Entner-Doudoroff pathway</text>
  <text x="620" y="244" font-size="12" fill="#56655f">variants belong in GO-CAMs, not nested terms</text>
  <!-- upstream annotations -->
  <text x="40" y="378" font-size="14" font-weight="600" fill="#15201e">Upstream annotations to move (go-annotation#6390)</text>
  <text x="40" y="402" font-size="13.5" fill="#56655f">EcoCyc 1 · UniProt 3 · 7 external mappings (MetaCyc, InterPro, HAMAP, UniRule)</text>
  <!-- repo reviews -->
  <text x="600" y="300" font-size="14" font-weight="600" fill="#15201e">Repo reviews still on GO:0009255</text>
  <rect x="600" y="314" width="320" height="60" rx="10" fill="#e8f1ee" stroke="#8fa39c"/>
  <text x="616" y="338" font-size="15" font-weight="600" fill="#15201e">PSEPK edd</text>
  <text x="616" y="359" font-size="12.5" fill="#56655f">IEA (GO_REF:0000120) · ACCEPT · core_functions</text>
  <rect x="600" y="384" width="320" height="60" rx="10" fill="#e8f1ee" stroke="#8fa39c"/>
  <text x="616" y="408" font-size="15" font-weight="600" fill="#15201e">PSEPK eda</text>
  <text x="616" y="429" font-size="12.5" fill="#56655f">proposed NEW row · core_functions</text>
  <path d="M900 312 L900 256" stroke="#b8620f" stroke-width="2" stroke-dasharray="5 4" marker-end="url(#g)"/>
  <text x="892" y="280" font-size="12" fill="#b8620f" text-anchor="end">swap id</text>
  <text x="40" y="492" font-size="13" fill="#56655f">No MF terms change: Edd and Eda keep their enzyme activity annotations.</text>
</svg>
