<svg xmlns="http://www.w3.org/2000/svg" viewBox="0 0 960 520" width="960" height="520" font-family="Helvetica, Arial, sans-serif">
<rect width="960" height="520" fill="#ffffff"/>
<text x="24" y="34" font-size="20" font-weight="bold" fill="#15201e">Review actions on 4,336 GO annotations across 34 AD genes</text>
<rect x="24" y="46" width="12" height="12" fill="#1d8a4b"/><text x="40" y="57" font-size="12" fill="#56655f">ACCEPT</text>
<rect x="102.8" y="46" width="12" height="12" fill="#8fa39c"/><text x="118.8" y="57" font-size="12" fill="#56655f">KEEP_AS_NON_CORE</text>
<rect x="259.6" y="46" width="12" height="12" fill="#7657a3"/><text x="275.6" y="57" font-size="12" fill="#56655f">MARK_AS_OVER_ANNOTATED</text>
<rect x="463.20000000000005" y="46" width="12" height="12" fill="#b8620f"/><text x="479.20000000000005" y="57" font-size="12" fill="#56655f">MODIFY</text>
<rect x="542.0" y="46" width="12" height="12" fill="#bd3a30"/><text x="558.0" y="57" font-size="12" fill="#56655f">REMOVE</text>
<rect x="620.8" y="46" width="12" height="12" fill="#c9d3cf"/><text x="636.8" y="57" font-size="12" fill="#56655f">UNDECIDED</text>
<rect x="723.0" y="46" width="12" height="12" fill="#1d68b3"/><text x="739.0" y="57" font-size="12" fill="#56655f">NEW</text>
<text x="88.0" y="85.88235294117648" font-size="14" text-anchor="end" fill="#15201e">APP</text>
<rect x="94.0" y="73.5" width="198.9" height="16.5" fill="#1d8a4b"/>
<rect x="292.9" y="73.5" width="63.4" height="16.5" fill="#8fa39c"/>
<rect x="356.3" y="73.5" width="72.1" height="16.5" fill="#7657a3"/>
<rect x="428.5" y="73.5" width="0.8" height="16.5" fill="#bd3a30"/>
<rect x="429.2" y="73.5" width="2.4" height="16.5" fill="#c9d3cf"/>
<rect x="431.6" y="73.5" width="2.4" height="16.5" fill="#1d68b3"/>
<text x="439.0" y="85.9" font-size="13" fill="#56655f">429</text>
<text x="88.0" y="109.41176470588236" font-size="14" text-anchor="end" fill="#15201e">GSK3B</text>
<rect x="94.0" y="97.1" width="136.3" height="16.5" fill="#1d8a4b"/>
<rect x="230.3" y="97.1" width="99.9" height="16.5" fill="#8fa39c"/>
<rect x="330.2" y="97.1" width="66.6" height="16.5" fill="#7657a3"/>
<rect x="396.8" y="97.1" width="6.3" height="16.5" fill="#b8620f"/>
<text x="408.1" y="109.4" font-size="13" fill="#56655f">390</text>
<text x="88.0" y="132.94117647058823" font-size="14" text-anchor="end" fill="#15201e">APOE</text>
<rect x="94.0" y="120.6" width="114.9" height="16.5" fill="#1d8a4b"/>
<rect x="208.9" y="120.6" width="95.1" height="16.5" fill="#8fa39c"/>
<rect x="304.0" y="120.6" width="22.2" height="16.5" fill="#7657a3"/>
<text x="331.2" y="132.9" font-size="13" fill="#56655f">293</text>
<text x="88.0" y="156.47058823529412" font-size="14" text-anchor="end" fill="#15201e">TREM2</text>
<rect x="94.0" y="144.1" width="92.7" height="16.5" fill="#1d8a4b"/>
<rect x="186.7" y="144.1" width="119.7" height="16.5" fill="#8fa39c"/>
<rect x="306.4" y="144.1" width="4.0" height="16.5" fill="#7657a3"/>
<text x="315.4" y="156.5" font-size="13" fill="#56655f">273</text>
<text x="88.0" y="180.0" font-size="14" text-anchor="end" fill="#15201e">MAPT</text>
<rect x="94.0" y="167.6" width="60.2" height="16.5" fill="#1d8a4b"/>
<rect x="154.2" y="167.6" width="55.5" height="16.5" fill="#8fa39c"/>
<rect x="209.7" y="167.6" width="40.4" height="16.5" fill="#7657a3"/>
<rect x="250.1" y="167.6" width="0.8" height="16.5" fill="#b8620f"/>
<text x="255.9" y="180.0" font-size="13" fill="#56655f">198</text>
<text x="88.0" y="203.52941176470588" font-size="14" text-anchor="end" fill="#15201e">PSEN1</text>
<rect x="94.0" y="191.2" width="51.5" height="16.5" fill="#1d8a4b"/>
<rect x="145.5" y="191.2" width="41.2" height="16.5" fill="#8fa39c"/>
<rect x="186.7" y="191.2" width="45.2" height="16.5" fill="#7657a3"/>
<rect x="231.9" y="191.2" width="5.5" height="16.5" fill="#b8620f"/>
<rect x="237.4" y="191.2" width="12.7" height="16.5" fill="#c9d3cf"/>
<text x="255.1" y="203.5" font-size="13" fill="#56655f">197</text>
<text x="88.0" y="227.05882352941177" font-size="14" text-anchor="end" fill="#15201e">SORL1</text>
<rect x="94.0" y="214.7" width="72.9" height="16.5" fill="#1d8a4b"/>
<rect x="166.9" y="214.7" width="34.9" height="16.5" fill="#8fa39c"/>
<rect x="201.8" y="214.7" width="19.8" height="16.5" fill="#7657a3"/>
<rect x="221.6" y="214.7" width="3.2" height="16.5" fill="#b8620f"/>
<rect x="224.8" y="214.7" width="2.4" height="16.5" fill="#c9d3cf"/>
<text x="232.1" y="227.1" font-size="13" fill="#56655f">168</text>
<text x="88.0" y="250.58823529411765" font-size="14" text-anchor="end" fill="#15201e">PLCG2</text>
<rect x="94.0" y="238.2" width="65.8" height="16.5" fill="#1d8a4b"/>
<rect x="159.8" y="238.2" width="44.4" height="16.5" fill="#8fa39c"/>
<rect x="204.2" y="238.2" width="5.5" height="16.5" fill="#7657a3"/>
<rect x="209.7" y="238.2" width="15.1" height="16.5" fill="#b8620f"/>
<rect x="224.8" y="238.2" width="0.8" height="16.5" fill="#bd3a30"/>
<rect x="225.6" y="238.2" width="0.8" height="16.5" fill="#c9d3cf"/>
<text x="231.4" y="250.6" font-size="13" fill="#56655f">167</text>
<text x="88.0" y="274.11764705882354" font-size="14" text-anchor="end" fill="#15201e">CLU</text>
<rect x="94.0" y="261.8" width="57.9" height="16.5" fill="#1d8a4b"/>
<rect x="151.9" y="261.8" width="44.4" height="16.5" fill="#8fa39c"/>
<rect x="196.2" y="261.8" width="17.4" height="16.5" fill="#7657a3"/>
<rect x="213.7" y="261.8" width="3.2" height="16.5" fill="#b8620f"/>
<text x="221.8" y="274.1" font-size="13" fill="#56655f">155</text>
<text x="88.0" y="297.6470588235294" font-size="14" text-anchor="end" fill="#15201e">ADAM10</text>
<rect x="94.0" y="285.3" width="69.0" height="16.5" fill="#1d8a4b"/>
<rect x="163.0" y="285.3" width="34.1" height="16.5" fill="#8fa39c"/>
<rect x="197.0" y="285.3" width="15.1" height="16.5" fill="#7657a3"/>
<rect x="212.1" y="285.3" width="0.8" height="16.5" fill="#b8620f"/>
<rect x="212.9" y="285.3" width="0.8" height="16.5" fill="#bd3a30"/>
<text x="218.7" y="297.6" font-size="13" fill="#56655f">151</text>
<text x="88.0" y="321.1764705882353" font-size="14" text-anchor="end" fill="#15201e">CDK5</text>
<rect x="94.0" y="308.8" width="62.6" height="16.5" fill="#1d8a4b"/>
<rect x="156.6" y="308.8" width="21.4" height="16.5" fill="#8fa39c"/>
<rect x="178.0" y="308.8" width="30.1" height="16.5" fill="#7657a3"/>
<rect x="208.1" y="308.8" width="4.0" height="16.5" fill="#b8620f"/>
<text x="217.1" y="321.2" font-size="13" fill="#56655f">149</text>
<text x="88.0" y="344.7058823529412" font-size="14" text-anchor="end" fill="#15201e">ABCA1</text>
<rect x="94.0" y="332.4" width="74.5" height="16.5" fill="#1d8a4b"/>
<rect x="168.5" y="332.4" width="26.9" height="16.5" fill="#8fa39c"/>
<rect x="195.4" y="332.4" width="8.7" height="16.5" fill="#7657a3"/>
<rect x="204.2" y="332.4" width="4.8" height="16.5" fill="#b8620f"/>
<text x="213.9" y="344.7" font-size="13" fill="#56655f">145</text>
<text x="88.0" y="368.2352941176471" font-size="14" text-anchor="end" fill="#15201e">BACE1</text>
<rect x="94.0" y="355.9" width="74.5" height="16.5" fill="#1d8a4b"/>
<rect x="168.5" y="355.9" width="19.0" height="16.5" fill="#8fa39c"/>
<rect x="187.5" y="355.9" width="15.9" height="16.5" fill="#7657a3"/>
<rect x="203.4" y="355.9" width="1.6" height="16.5" fill="#b8620f"/>
<text x="210.0" y="368.2" font-size="13" fill="#56655f">140</text>
<text x="88.0" y="391.7647058823529" font-size="14" text-anchor="end" fill="#15201e">SPI1</text>
<rect x="94.0" y="379.4" width="58.6" height="16.5" fill="#1d8a4b"/>
<rect x="152.6" y="379.4" width="25.4" height="16.5" fill="#8fa39c"/>
<rect x="178.0" y="379.4" width="8.7" height="16.5" fill="#7657a3"/>
<rect x="186.7" y="379.4" width="16.6" height="16.5" fill="#b8620f"/>
<rect x="203.4" y="379.4" width="1.6" height="16.5" fill="#c9d3cf"/>
<text x="210.0" y="391.8" font-size="13" fill="#56655f">140</text>
<text x="88.0" y="415.29411764705884" font-size="14" text-anchor="end" fill="#15201e">LRP1</text>
<rect x="94.0" y="402.9" width="61.0" height="16.5" fill="#1d8a4b"/>
<rect x="155.0" y="402.9" width="23.0" height="16.5" fill="#8fa39c"/>
<rect x="178.0" y="402.9" width="14.3" height="16.5" fill="#7657a3"/>
<text x="197.3" y="415.3" font-size="13" fill="#56655f">124</text>
<text x="88.0" y="438.82352941176475" font-size="14" text-anchor="end" fill="#15201e">PICALM</text>
<rect x="94.0" y="426.5" width="63.4" height="16.5" fill="#1d8a4b"/>
<rect x="157.4" y="426.5" width="17.4" height="16.5" fill="#8fa39c"/>
<rect x="174.8" y="426.5" width="7.9" height="16.5" fill="#7657a3"/>
<rect x="182.8" y="426.5" width="0.8" height="16.5" fill="#b8620f"/>
<text x="188.6" y="438.8" font-size="13" fill="#56655f">113</text>
<text x="88.0" y="462.3529411764706" font-size="14" text-anchor="end" fill="#15201e">BIN1</text>
<rect x="94.0" y="450.0" width="49.1" height="16.5" fill="#1d8a4b"/>
<rect x="143.1" y="450.0" width="24.6" height="16.5" fill="#8fa39c"/>
<rect x="167.7" y="450.0" width="14.3" height="16.5" fill="#7657a3"/>
<rect x="182.0" y="450.0" width="0.8" height="16.5" fill="#b8620f"/>
<text x="187.8" y="462.4" font-size="13" fill="#56655f">112</text>
<text x="568.0" y="85.88235294117648" font-size="14" text-anchor="end" fill="#15201e">CDK5R1</text>
<rect x="574.0" y="73.5" width="48.3" height="16.5" fill="#1d8a4b"/>
<rect x="622.3" y="73.5" width="12.7" height="16.5" fill="#8fa39c"/>
<rect x="635.0" y="73.5" width="15.1" height="16.5" fill="#7657a3"/>
<rect x="650.1" y="73.5" width="6.3" height="16.5" fill="#b8620f"/>
<text x="661.4" y="85.9" font-size="13" fill="#56655f">104</text>
<text x="568.0" y="109.41176470588236" font-size="14" text-anchor="end" fill="#15201e">NCSTN</text>
<rect x="574.0" y="97.1" width="57.1" height="16.5" fill="#1d8a4b"/>
<rect x="631.1" y="97.1" width="9.5" height="16.5" fill="#8fa39c"/>
<rect x="640.6" y="97.1" width="10.3" height="16.5" fill="#7657a3"/>
<rect x="650.9" y="97.1" width="1.6" height="16.5" fill="#b8620f"/>
<text x="657.5" y="109.4" font-size="13" fill="#56655f">99</text>
<text x="568.0" y="132.94117647058823" font-size="14" text-anchor="end" fill="#15201e">FERMT2</text>
<rect x="574.0" y="120.6" width="41.2" height="16.5" fill="#1d8a4b"/>
<rect x="615.2" y="120.6" width="23.8" height="16.5" fill="#8fa39c"/>
<rect x="639.0" y="120.6" width="1.6" height="16.5" fill="#7657a3"/>
<rect x="640.6" y="120.6" width="0.8" height="16.5" fill="#b8620f"/>
<text x="646.4" y="132.9" font-size="13" fill="#56655f">85</text>
<text x="568.0" y="156.47058823529412" font-size="14" text-anchor="end" fill="#15201e">ABCA7</text>
<rect x="574.0" y="144.1" width="43.6" height="16.5" fill="#1d8a4b"/>
<rect x="617.6" y="144.1" width="15.9" height="16.5" fill="#8fa39c"/>
<rect x="633.4" y="144.1" width="1.6" height="16.5" fill="#7657a3"/>
<rect x="635.0" y="144.1" width="3.2" height="16.5" fill="#b8620f"/>
<text x="643.2" y="156.5" font-size="13" fill="#56655f">81</text>
<text x="568.0" y="180.0" font-size="14" text-anchor="end" fill="#15201e">PSEN2</text>
<rect x="574.0" y="167.6" width="31.7" height="16.5" fill="#1d8a4b"/>
<rect x="605.7" y="167.6" width="19.0" height="16.5" fill="#8fa39c"/>
<rect x="624.7" y="167.6" width="8.7" height="16.5" fill="#7657a3"/>
<rect x="633.4" y="167.6" width="3.2" height="16.5" fill="#c9d3cf"/>
<text x="641.6" y="180.0" font-size="13" fill="#56655f">79</text>
<text x="568.0" y="203.52941176470588" font-size="14" text-anchor="end" fill="#15201e">APH1A</text>
<rect x="574.0" y="191.2" width="39.6" height="16.5" fill="#1d8a4b"/>
<rect x="613.6" y="191.2" width="9.5" height="16.5" fill="#8fa39c"/>
<rect x="623.1" y="191.2" width="7.1" height="16.5" fill="#7657a3"/>
<rect x="630.3" y="191.2" width="1.6" height="16.5" fill="#b8620f"/>
<text x="636.9" y="203.5" font-size="13" fill="#56655f">73</text>
<text x="568.0" y="227.05882352941177" font-size="14" text-anchor="end" fill="#15201e">CD2AP</text>
<rect x="574.0" y="214.7" width="28.5" height="16.5" fill="#1d8a4b"/>
<rect x="602.5" y="214.7" width="7.1" height="16.5" fill="#8fa39c"/>
<rect x="609.7" y="214.7" width="15.1" height="16.5" fill="#7657a3"/>
<rect x="624.7" y="214.7" width="5.5" height="16.5" fill="#b8620f"/>
<rect x="630.3" y="214.7" width="0.8" height="16.5" fill="#c9d3cf"/>
<text x="636.1" y="227.1" font-size="13" fill="#56655f">72</text>
<text x="568.0" y="250.58823529411765" font-size="14" text-anchor="end" fill="#15201e">PSENEN</text>
<rect x="574.0" y="238.2" width="43.6" height="16.5" fill="#1d8a4b"/>
<rect x="617.6" y="238.2" width="6.3" height="16.5" fill="#8fa39c"/>
<rect x="623.9" y="238.2" width="5.5" height="16.5" fill="#7657a3"/>
<rect x="629.5" y="238.2" width="0.8" height="16.5" fill="#b8620f"/>
<text x="635.3" y="250.6" font-size="13" fill="#56655f">71</text>
<text x="568.0" y="274.11764705882354" font-size="14" text-anchor="end" fill="#15201e">CR1</text>
<rect x="574.0" y="261.8" width="33.3" height="16.5" fill="#1d8a4b"/>
<rect x="607.3" y="261.8" width="13.5" height="16.5" fill="#8fa39c"/>
<rect x="620.8" y="261.8" width="2.4" height="16.5" fill="#7657a3"/>
<rect x="623.1" y="261.8" width="1.6" height="16.5" fill="#b8620f"/>
<text x="629.7" y="274.1" font-size="13" fill="#56655f">64</text>
<text x="568.0" y="297.6470588235294" font-size="14" text-anchor="end" fill="#15201e">INPP5D</text>
<rect x="574.0" y="285.3" width="26.9" height="16.5" fill="#1d8a4b"/>
<rect x="600.9" y="285.3" width="3.2" height="16.5" fill="#8fa39c"/>
<rect x="604.1" y="285.3" width="2.4" height="16.5" fill="#7657a3"/>
<rect x="606.5" y="285.3" width="9.5" height="16.5" fill="#b8620f"/>
<rect x="616.0" y="285.3" width="0.8" height="16.5" fill="#bd3a30"/>
<rect x="616.8" y="285.3" width="1.6" height="16.5" fill="#c9d3cf"/>
<rect x="618.4" y="285.3" width="0.8" height="16.5" fill="#1d68b3"/>
<text x="624.2" y="297.6" font-size="13" fill="#56655f">57</text>
<text x="568.0" y="321.1764705882353" font-size="14" text-anchor="end" fill="#15201e">ABI3</text>
<rect x="574.0" y="308.8" width="19.8" height="16.5" fill="#1d8a4b"/>
<rect x="593.8" y="308.8" width="9.5" height="16.5" fill="#8fa39c"/>
<rect x="603.3" y="308.8" width="7.1" height="16.5" fill="#7657a3"/>
<rect x="610.5" y="308.8" width="0.8" height="16.5" fill="#c9d3cf"/>
<text x="616.2" y="321.2" font-size="13" fill="#56655f">47</text>
<text x="568.0" y="344.7058823529412" font-size="14" text-anchor="end" fill="#15201e">CD33</text>
<rect x="574.0" y="332.4" width="23.0" height="16.5" fill="#1d8a4b"/>
<rect x="597.0" y="332.4" width="4.0" height="16.5" fill="#8fa39c"/>
<rect x="600.9" y="332.4" width="6.3" height="16.5" fill="#7657a3"/>
<rect x="607.3" y="332.4" width="1.6" height="16.5" fill="#b8620f"/>
<rect x="608.9" y="332.4" width="0.8" height="16.5" fill="#c9d3cf"/>
<text x="614.7" y="344.7" font-size="13" fill="#56655f">45</text>
<text x="568.0" y="368.2352941176471" font-size="14" text-anchor="end" fill="#15201e">APH1B</text>
<rect x="574.0" y="355.9" width="29.3" height="16.5" fill="#1d8a4b"/>
<rect x="603.3" y="355.9" width="0.8" height="16.5" fill="#8fa39c"/>
<rect x="604.1" y="355.9" width="3.2" height="16.5" fill="#7657a3"/>
<rect x="607.3" y="355.9" width="0.8" height="16.5" fill="#b8620f"/>
<text x="613.1" y="368.2" font-size="13" fill="#56655f">43</text>
<text x="568.0" y="391.7647058823529" font-size="14" text-anchor="end" fill="#15201e">EPHA1</text>
<rect x="574.0" y="379.4" width="23.8" height="16.5" fill="#1d8a4b"/>
<rect x="597.8" y="379.4" width="7.9" height="16.5" fill="#8fa39c"/>
<rect x="605.7" y="379.4" width="1.6" height="16.5" fill="#7657a3"/>
<text x="612.3" y="391.8" font-size="13" fill="#56655f">42</text>
<text x="568.0" y="415.29411764705884" font-size="14" text-anchor="end" fill="#15201e">CASS4</text>
<rect x="574.0" y="402.9" width="10.3" height="16.5" fill="#1d8a4b"/>
<rect x="584.3" y="402.9" width="0.8" height="16.5" fill="#8fa39c"/>
<rect x="585.1" y="402.9" width="0.8" height="16.5" fill="#b8620f"/>
<text x="590.9" y="415.3" font-size="13" fill="#56655f">15</text>
<text x="568.0" y="438.82352941176475" font-size="14" text-anchor="end" fill="#15201e">MS4A4A</text>
<rect x="574.0" y="426.5" width="5.5" height="16.5" fill="#1d8a4b"/>
<rect x="579.5" y="426.5" width="1.6" height="16.5" fill="#7657a3"/>
<text x="586.1" y="438.8" font-size="13" fill="#56655f">9</text>
<text x="568.0" y="462.3529411764706" font-size="14" text-anchor="end" fill="#15201e">MS4A6A</text>
<rect x="574.0" y="450.0" width="2.4" height="16.5" fill="#1d8a4b"/>
<rect x="576.4" y="450.0" width="1.6" height="16.5" fill="#7657a3"/>
<rect x="578.0" y="450.0" width="0.8" height="16.5" fill="#b8620f"/>
<text x="583.8" y="462.4" font-size="13" fill="#56655f">6</text>
<text x="24" y="504" font-size="12" fill="#56655f">Counts of review actions on existing GO annotations, from genes/human/*/*-ai-review.yaml</text>
</svg>