<svg xmlns="http://www.w3.org/2000/svg" viewBox="0 0 960 520" font-family="Helvetica, Arial, sans-serif">
<rect width="960" height="520" fill="#ffffff"/>
<text x="480" y="30" text-anchor="middle" font-size="20" font-weight="bold" fill="#15201e">Share of aligned annotations that are molecular function (MF)</text>
<text x="480" y="52" text-anchor="middle" font-size="13" fill="#56655f">Readout classes with ≥15 thematically aligned annotations; reports/catalog_summary.tsv</text>
<text x="320" y="80.2" text-anchor="end" font-size="12" fill="#15201e">chromatin chip</text>
<rect x="330" y="72.0" width="520" height="10.1" fill="#f1f5f4"/>
<rect x="330" y="72.0" width="520.0" height="10.1" fill="#0e6b66"/>
<text x="858" y="80.2" font-size="12" fill="#56655f">100%  (136/136)</text>
<text x="320" y="94.3" text-anchor="end" font-size="12" fill="#15201e">nuclease activity</text>
<rect x="330" y="86.1" width="520" height="10.1" fill="#f1f5f4"/>
<rect x="330" y="86.1" width="473.2" height="10.1" fill="#0e6b66"/>
<text x="858" y="94.3" font-size="12" fill="#56655f">91%  (20/22)</text>
<text x="320" y="108.5" text-anchor="end" font-size="12" fill="#15201e">kinase activity assay</text>
<rect x="330" y="100.3" width="520" height="10.1" fill="#f1f5f4"/>
<rect x="330" y="100.3" width="457.6" height="10.1" fill="#0e6b66"/>
<text x="858" y="108.5" font-size="12" fill="#56655f">88%  (106/120)</text>
<text x="320" y="122.6" text-anchor="end" font-size="12" fill="#15201e">gtpase activity</text>
<rect x="330" y="114.4" width="520" height="10.1" fill="#f1f5f4"/>
<rect x="330" y="114.4" width="447.2" height="10.1" fill="#0e6b66"/>
<text x="858" y="122.6" font-size="12" fill="#56655f">86%  (55/64)</text>
<text x="320" y="136.7" text-anchor="end" font-size="12" fill="#15201e">polymerase activity</text>
<rect x="330" y="128.6" width="520" height="10.1" fill="#f1f5f4"/>
<rect x="330" y="128.6" width="431.6" height="10.1" fill="#0e6b66"/>
<text x="858" y="136.7" font-size="12" fill="#56655f">83%  (15/18)</text>
<text x="320" y="150.9" text-anchor="end" font-size="12" fill="#15201e">acetyltransferase deacetylase</text>
<rect x="330" y="142.7" width="520" height="10.1" fill="#f1f5f4"/>
<rect x="330" y="142.7" width="400.4" height="10.1" fill="#0e6b66"/>
<text x="858" y="150.9" font-size="12" fill="#56655f">77%  (59/77)</text>
<text x="320" y="165.0" text-anchor="end" font-size="12" fill="#15201e">protease activity</text>
<rect x="330" y="156.8" width="520" height="10.1" fill="#f1f5f4"/>
<rect x="330" y="156.8" width="369.2" height="10.1" fill="#0e6b66"/>
<text x="858" y="165.0" font-size="12" fill="#56655f">71%  (15/21)</text>
<text x="320" y="179.1" text-anchor="end" font-size="12" fill="#15201e">chaperone refolding</text>
<rect x="330" y="171.0" width="520" height="10.1" fill="#f1f5f4"/>
<rect x="330" y="171.0" width="327.6" height="10.1" fill="#0e6b66"/>
<text x="858" y="179.1" font-size="12" fill="#56655f">63%  (49/78)</text>
<text x="320" y="193.3" text-anchor="end" font-size="12" fill="#15201e">electrophysiology</text>
<rect x="330" y="185.1" width="520" height="10.1" fill="#f1f5f4"/>
<rect x="330" y="185.1" width="322.4" height="10.1" fill="#0e6b66"/>
<text x="858" y="193.3" font-size="12" fill="#56655f">62%  (18/29)</text>
<text x="320" y="207.4" text-anchor="end" font-size="12" fill="#15201e">ubiquitination assay</text>
<rect x="330" y="199.2" width="520" height="10.1" fill="#f1f5f4"/>
<rect x="330" y="199.2" width="317.2" height="10.1" fill="#0e6b66"/>
<text x="858" y="207.4" font-size="12" fill="#56655f">61%  (39/64)</text>
<text x="320" y="221.6" text-anchor="end" font-size="12" fill="#15201e">methyltransferase activity</text>
<rect x="330" y="213.4" width="520" height="10.1" fill="#f1f5f4"/>
<rect x="330" y="213.4" width="244.4" height="10.1" fill="#0e6b66"/>
<text x="858" y="221.6" font-size="12" fill="#56655f">47%  (7/15)</text>
<text x="320" y="235.7" text-anchor="end" font-size="12" fill="#15201e">proteasome activity</text>
<rect x="330" y="227.5" width="520" height="10.1" fill="#f1f5f4"/>
<rect x="330" y="227.5" width="10.4" height="10.1" fill="#0e6b66"/>
<text x="858" y="235.7" font-size="12" fill="#56655f">2%  (1/43)</text>
<line x1="20" y1="246.7" x2="940" y2="246.7" stroke="#8fa39c" stroke-dasharray="4 4"/>
<text x="320" y="264.0" text-anchor="end" font-size="12" fill="#15201e">protein aggregation</text>
<rect x="330" y="255.8" width="520" height="10.1" fill="#f1f5f4"/>
<rect x="330" y="255.8" width="176.8" height="10.1" fill="#b8620f"/>
<text x="858" y="264.0" font-size="12" fill="#56655f">34%  (12/35)</text>
<text x="320" y="278.1" text-anchor="end" font-size="12" fill="#15201e">transcriptional reporter</text>
<rect x="330" y="269.9" width="520" height="10.1" fill="#f1f5f4"/>
<rect x="330" y="269.9" width="171.6" height="10.1" fill="#b8620f"/>
<text x="858" y="278.1" font-size="12" fill="#56655f">33%  (72/216)</text>
<text x="320" y="292.2" text-anchor="end" font-size="12" fill="#15201e">upr er stress</text>
<rect x="330" y="284.1" width="520" height="10.1" fill="#f1f5f4"/>
<rect x="330" y="284.1" width="57.2" height="10.1" fill="#b8620f"/>
<text x="858" y="292.2" font-size="12" fill="#56655f">11%  (2/19)</text>
<text x="320" y="306.4" text-anchor="end" font-size="12" fill="#15201e">calcium flux</text>
<rect x="330" y="298.2" width="520" height="10.1" fill="#f1f5f4"/>
<rect x="330" y="298.2" width="46.8" height="10.1" fill="#b8620f"/>
<text x="858" y="306.4" font-size="12" fill="#56655f">9%  (2/22)</text>
<text x="320" y="320.5" text-anchor="end" font-size="12" fill="#15201e">wnt reporter</text>
<rect x="330" y="312.3" width="520" height="10.1" fill="#f1f5f4"/>
<rect x="330" y="312.3" width="31.2" height="10.1" fill="#b8620f"/>
<text x="858" y="320.5" font-size="12" fill="#56655f">6%  (1/17)</text>
<text x="320" y="334.7" text-anchor="end" font-size="12" fill="#15201e">mito membrane potential</text>
<rect x="330" y="326.5" width="520" height="10.1" fill="#f1f5f4"/>
<text x="858" y="334.7" font-size="12" fill="#56655f">0%  (0/172)</text>
<text x="320" y="348.8" text-anchor="end" font-size="12" fill="#15201e">autophagy flux</text>
<rect x="330" y="340.6" width="520" height="10.1" fill="#f1f5f4"/>
<text x="858" y="348.8" font-size="12" fill="#56655f">0%  (0/126)</text>
<text x="320" y="362.9" text-anchor="end" font-size="12" fill="#15201e">viability proliferation</text>
<rect x="330" y="354.8" width="520" height="10.1" fill="#f1f5f4"/>
<text x="858" y="362.9" font-size="12" fill="#56655f">0%  (0/91)</text>
<text x="320" y="377.1" text-anchor="end" font-size="12" fill="#15201e">apoptosis caspase</text>
<rect x="330" y="368.9" width="520" height="10.1" fill="#f1f5f4"/>
<text x="858" y="377.1" font-size="12" fill="#56655f">0%  (0/72)</text>
<text x="320" y="391.2" text-anchor="end" font-size="12" fill="#15201e">cell migration invasion</text>
<rect x="330" y="383.0" width="520" height="10.1" fill="#f1f5f4"/>
<text x="858" y="391.2" font-size="12" fill="#56655f">0%  (0/37)</text>
<text x="320" y="405.4" text-anchor="end" font-size="12" fill="#15201e">dna damage foci</text>
<rect x="330" y="397.2" width="520" height="10.1" fill="#f1f5f4"/>
<text x="858" y="405.4" font-size="12" fill="#56655f">0%  (0/36)</text>
<text x="320" y="419.5" text-anchor="end" font-size="12" fill="#15201e">protein turnover</text>
<rect x="330" y="411.3" width="520" height="10.1" fill="#f1f5f4"/>
<text x="858" y="419.5" font-size="12" fill="#56655f">0%  (0/29)</text>
<text x="320" y="433.6" text-anchor="end" font-size="12" fill="#15201e">angiogenesis tube</text>
<rect x="330" y="425.4" width="520" height="10.1" fill="#f1f5f4"/>
<text x="858" y="433.6" font-size="12" fill="#56655f">0%  (0/22)</text>
<text x="320" y="447.8" text-anchor="end" font-size="12" fill="#15201e">cell differentiation</text>
<rect x="330" y="439.6" width="520" height="10.1" fill="#f1f5f4"/>
<text x="858" y="447.8" font-size="12" fill="#56655f">0%  (0/19)</text>
<text x="320" y="461.9" text-anchor="end" font-size="12" fill="#15201e">cell cycle flow</text>
<rect x="330" y="453.7" width="520" height="10.1" fill="#f1f5f4"/>
<text x="858" y="461.9" font-size="12" fill="#56655f">0%  (0/17)</text>
<text x="320" y="476.0" text-anchor="end" font-size="12" fill="#15201e">inflammasome pyroptosis</text>
<rect x="330" y="467.9" width="520" height="10.1" fill="#f1f5f4"/>
<text x="858" y="476.0" font-size="12" fill="#56655f">0%  (0/15)</text>
<text x="30" y="506" font-size="13" fill="#0e6b66" font-weight="bold">■ molecular readout</text><text x="200" y="506" font-size="13" fill="#b8620f" font-weight="bold">■ phenotypic hub</text><text x="360" y="506" font-size="13" fill="#56655f">All 60 classes: molecular 567/738 = 77% MF · phenotypic 90/1,087 = 8% MF</text>
</svg>